<svg xmlns="http://www.w3.org/2000/svg" viewBox="0 0 1920 1200" preserveAspectRatio="xMidYMid slice">
  <rect width="1920" height="1200" fill="#09090b" />

  <g fill="none" stroke="#ffffff">
    <!-- top-left cluster -->
    <circle cx="580" cy="230" r="175" stroke-opacity="0.09" stroke-width="1.5" />
    <path d="M 430 145 A 175 175 0 0 1 730 190" stroke-opacity="0.22" stroke-width="10" stroke-linecap="round" stroke-dasharray="70 40" />
    <line x1="580" y1="405" x2="580" y2="530" stroke-opacity="0.15" stroke-width="1.5" />
    <circle cx="580" cy="530" r="4" fill="#ffffff" fill-opacity="0.25" stroke="none" />
    <line x1="580" y1="230" x2="770" y2="330" stroke-opacity="0.12" stroke-width="1.5" />
    <circle cx="770" cy="330" r="4" fill="#ffffff" fill-opacity="0.25" stroke="none" />
    <line x1="430" y1="145" x2="260" y2="205" stroke-opacity="0.12" stroke-width="1.5" />
    <circle cx="260" cy="205" r="3.5" fill="#ffffff" fill-opacity="0.22" stroke="none" />

    <circle cx="200" cy="395" r="80" stroke-opacity="0.14" stroke-width="1.5" />
    <circle cx="200" cy="395" r="60" stroke-opacity="0.16" stroke-width="1.5" stroke-dasharray="14 10" />
    <g stroke-opacity="0.16" stroke-width="1">
      <line x1="200" y1="395" x2="150" y2="310" />
      <line x1="200" y1="395" x2="270" y2="330" />
      <line x1="200" y1="395" x2="280" y2="410" />
      <line x1="200" y1="395" x2="215" y2="490" />
      <line x1="200" y1="395" x2="120" y2="440" />
    </g>
    <circle cx="150" cy="310" r="3" fill="#ffffff" fill-opacity="0.3" stroke="none" />
    <circle cx="270" cy="330" r="3" fill="#ffffff" fill-opacity="0.3" stroke="none" />
    <circle cx="395" cy="480" r="4.5" fill="#ffffff" fill-opacity="0.3" stroke="none" />
    <line x1="270" y1="330" x2="395" y2="480" stroke-opacity="0.12" stroke-width="1.5" />
    <line x1="330" y1="605" x2="395" y2="480" stroke-opacity="0.12" stroke-width="1.5" />

    <!-- top-right sun -->
    <circle cx="1185" cy="165" r="55" stroke-opacity="0.13" stroke-width="1.5" />
    <circle cx="1185" cy="165" r="38" stroke-opacity="0.16" stroke-width="1.5" stroke-dasharray="10 8" />
    <g stroke-opacity="0.15" stroke-width="1">
      <line x1="1185" y1="165" x2="1160" y2="55" />
      <line x1="1185" y1="165" x2="1205" y2="60" />
      <line x1="1185" y1="165" x2="1030" y2="90" />
      <line x1="1185" y1="165" x2="1050" y2="180" />
      <line x1="1185" y1="165" x2="1225" y2="195" />
      <line x1="1185" y1="165" x2="1120" y2="270" />
    </g>
    <circle cx="1030" cy="90" r="3" fill="#ffffff" fill-opacity="0.28" stroke="none" />
    <path d="M 1075 15 A 260 260 0 0 1 1330 260" stroke-opacity="0.08" stroke-width="1.5" />

    <!-- far top-right thick arcs -->
    <path d="M 1610 120 A 130 130 0 0 1 1720 260" stroke-opacity="0.24" stroke-width="16" stroke-linecap="round" stroke-dasharray="55 30" />
    <path d="M 1870 20 A 130 130 0 0 1 1930 190" stroke-opacity="0.22" stroke-width="16" stroke-linecap="round" stroke-dasharray="45 30" />

    <!-- center suns -->
    <circle cx="805" cy="655" r="45" stroke-opacity="0.13" stroke-width="1.5" />
    <circle cx="805" cy="655" r="30" stroke-opacity="0.16" stroke-width="1.5" stroke-dasharray="8 7" />
    <g stroke-opacity="0.15" stroke-width="1">
      <line x1="805" y1="655" x2="800" y2="555" />
      <line x1="805" y1="655" x2="845" y2="565" />
      <line x1="805" y1="655" x2="925" y2="600" />
      <line x1="805" y1="655" x2="915" y2="740" />
      <line x1="805" y1="655" x2="700" y2="720" />
    </g>
    <circle cx="800" cy="555" r="3" fill="#ffffff" fill-opacity="0.28" stroke="none" />
    <circle cx="915" cy="740" r="3" fill="#ffffff" fill-opacity="0.28" stroke="none" />

    <line x1="440" y1="705" x2="525" y2="675" stroke-opacity="0.12" stroke-width="1.5" />
    <circle cx="525" cy="675" r="3.5" fill="#ffffff" fill-opacity="0.28" stroke="none" />
    <line x1="525" y1="675" x2="655" y2="770" stroke-opacity="0.12" stroke-width="1.5" />
    <circle cx="655" cy="770" r="4" fill="#ffffff" fill-opacity="0.28" stroke="none" />
    <line x1="565" y1="815" x2="655" y2="770" stroke-opacity="0.1" stroke-width="1.5" />
    <line x1="565" y1="815" x2="880" y2="880" stroke-opacity="0.1" stroke-width="1.5" />
    <circle cx="880" cy="880" r="4.5" fill="#ffffff" fill-opacity="0.3" stroke="none" />

    <!-- right-mid ring -->
    <circle cx="1855" cy="500" r="150" stroke-opacity="0.1" stroke-width="1.5" />
    <circle cx="1855" cy="500" r="110" stroke-opacity="0.13" stroke-width="1.5" stroke-dasharray="20 14" />
    <circle cx="1855" cy="500" r="70" stroke-opacity="0.16" stroke-width="1.5" stroke-dasharray="12 10" />
    <path d="M 1330 400 A 560 560 0 0 1 1560 590" stroke-opacity="0.09" stroke-width="1.5" />
    <path d="M 1580 615 A 260 260 0 0 0 1930 555" stroke-opacity="0.12" stroke-width="1.5" />
    <g stroke-opacity="0.14" stroke-width="1">
      <line x1="1855" y1="500" x2="1740" y2="600" />
      <line x1="1855" y1="500" x2="1620" y2="655" />
      <line x1="1855" y1="500" x2="1700" y2="680" />
    </g>
    <circle cx="1620" cy="655" r="4" fill="#ffffff" fill-opacity="0.28" stroke="none" />
    <circle cx="1700" cy="680" r="3" fill="#ffffff" fill-opacity="0.25" stroke="none" />

    <!-- right-center ring -->
    <circle cx="1385" cy="765" r="120" stroke-opacity="0.12" stroke-width="1.5" />
    <circle cx="1385" cy="765" r="88" stroke-opacity="0.15" stroke-width="1.5" stroke-dasharray="16 12" />
    <circle cx="1385" cy="765" r="4" fill="#ffffff" fill-opacity="0.3" stroke="none" />
    <line x1="1385" y1="765" x2="1235" y2="620" stroke-opacity="0.13" stroke-width="1.5" />
    <circle cx="1235" cy="620" r="4" fill="#ffffff" fill-opacity="0.28" stroke="none" />
    <line x1="1385" y1="765" x2="1430" y2="620" stroke-opacity="0.11" stroke-width="1.5" />
    <line x1="1385" y1="765" x2="1540" y2="895" stroke-opacity="0.11" stroke-width="1.5" />
    <circle cx="1540" cy="895" r="3.5" fill="#ffffff" fill-opacity="0.25" stroke="none" />
    <line x1="1385" y1="765" x2="1740" y2="1015" stroke-opacity="0.09" stroke-width="1.5" />
    <circle cx="1740" cy="1015" r="4" fill="#ffffff" fill-opacity="0.25" stroke="none" />

    <!-- bottom-left thick arc -->
    <path d="M -60 590 A 620 620 0 0 1 555 1210" stroke-opacity="0.24" stroke-width="18" stroke-linecap="round" stroke-dasharray="60 34" />
    <path d="M 40 640 A 480 480 0 0 1 470 1080" stroke-opacity="0.08" stroke-width="1.5" />
    <circle cx="365" cy="855" r="95" stroke-opacity="0.13" stroke-width="1.5" />
    <circle cx="365" cy="855" r="65" stroke-opacity="0.15" stroke-width="1.5" stroke-dasharray="14 10" />

    <!-- bottom-center sun + ring -->
    <circle cx="1035" cy="1075" r="115" stroke-opacity="0.11" stroke-width="1.5" />
    <circle cx="1035" cy="1075" r="82" stroke-opacity="0.15" stroke-width="1.5" stroke-dasharray="16 12" />
    <line x1="1150" y1="1075" x2="1250" y2="1030" stroke-opacity="0.11" stroke-width="1.5" />
    <line x1="915" y1="990" x2="880" y2="880" stroke-opacity="0.1" stroke-width="1.5" />

    <!-- scattered lone connectors -->
    <line x1="1225" y1="615" x2="1330" y2="400" stroke-opacity="0.08" stroke-width="1.5" />
    <circle cx="1740" cy="1015" r="0" stroke="none" />
    <line x1="1740" y1="700" x2="1740" y2="1015" stroke-opacity="0.09" stroke-width="1.5" />
  </g>
</svg>
